<svg xmlns="http://www.w3.org/2000/svg" viewBox="0 0 580 580"><defs><style>.cls-1{fill:#2a1e12;}</style></defs><g id="Camada_2" data-name="Camada 2"><g id="Top"><path class="cls-1" d="M241.45,580c-75-15.23-134.43-50.55-178.82-107.45C19.54,417.32-2.48,352.67.22,281.9,2.87,212.38,27.09,149.42,73.06,97.64,119.46,45.38,179.15,12.9,248.24,3.08S383.7,6.82,442.79,44.52C501.57,82,544.5,134.9,565.38,202.17c25.81,83.12,17.87,165.72-27.19,239.62-44.72,73.36-111.05,121.44-201.46,137.86-5.18-22.86-11.81-46.23-14.92-70.07-.77-5.9,8.79-14.83,15.48-19.8,54.6-40.46,69.45-97,68.47-165.21H174c-2.39,67.61,11.94,124.4,66.32,162.81,16.52,11.67,19.63,22.86,15.14,39.84C250.7,545.05,246,562.87,241.45,580Z"/><path class="cls-1" d="M326.22,423.61c-21.08,35-51.68,35.26-72.19.65C278.14,405.24,298.33,405.05,326.22,423.61Z"/></g></g></svg>