<svg id="Camada_1" data-name="Camada 1" xmlns="http://www.w3.org/2000/svg" viewBox="0 0 1920 338.6"><defs><style>.cls-1{fill:#f9960e;}.cls-2{fill:#f9c00e;}</style></defs><path class="cls-1" d="M1920,55.65H1303.4v-.41H0v227c13.56,4.83,28,9.55,44,13.92,45.08,12.29,98.43,21.12,170.83,21.4,121.06.44,179.83-23.73,235.65-47.78S588.44,222.92,695.6,225.3c187.62,4.17,279.15,84.36,438.5,107.42V333c28.22,4.57,59.82,7,96.8,6.14,207.78-4.72,296.72-108.65,511-113.41,70.26-1.56,129.73,7.68,178.1,21Z" transform="translate(0 -0.7)"/><path class="cls-2" d="M1920,.7H0V153c177.26,37.52,229.4,131.33,490.08,131.33,321.07,0,325.78-142.3,637.57-146.48,311.79,4.18,316.5,146.48,637.57,146.48,61.85,0,112-5.28,154.78-13.84Z" transform="translate(0 -0.7)"/></svg>