<svg id="Camada_1" data-name="Camada 1" xmlns="http://www.w3.org/2000/svg" viewBox="0 0 375 160"><defs><style>.cls-1{fill:#f9960e;}.cls-2{fill:#f9c00e;}</style></defs><path class="cls-1" d="M375,30.83v126.3a96.56,96.56,0,0,1-27.85,2.79c-59.78-2.15-85.37-49.48-147-51.65a116.24,116.24,0,0,0-70.51,20.24c-16.06,11-33,22-67.8,21.76-20.83-.13-36.18-4.15-49.15-9.75A132.34,132.34,0,0,1,0,134.18V30.83Z" transform="translate(0 0)"/><path class="cls-2" d="M375,0V43.44c-12.75-2.67-27.75-4.35-46.5-4.35-93.75,0-93.75,41.81-187.5,41.81C66,80.9,51,54.14,0,43.44V0Z" transform="translate(0 0)"/></svg>